<svg xmlns="http://www.w3.org/2000/svg" width="400" height="400" viewBox="0 0 400 400">
  <g fill="none" stroke="#6d9eeb" stroke-width="1.5">
    <path d="M-20 60 C 80 20, 180 100, 280 40 S 480 20, 520 60" />
    <path d="M-20 120 C 80 80, 180 160, 280 100 S 480 80, 520 120" />
    <path d="M-20 180 C 80 140, 180 220, 280 160 S 480 140, 520 180" />
    <path d="M-20 240 C 80 200, 180 280, 280 220 S 480 200, 520 240" />
    <path d="M-20 300 C 80 260, 180 340, 280 280 S 480 260, 520 300" />
    <path d="M-20 360 C 80 320, 180 400, 280 340 S 480 320, 520 360" />
  </g>
</svg>