<svg xmlns="http://www.w3.org/2000/svg" viewBox="0 0 400 240" role="img" aria-label="Neighbourhood vibes: a city of faded blocks dotted with sentiment markers, one prominent positive vibe highlighted">
  
  <g fill="#94a3b8">
    <rect x="40" y="58" width="46" height="46" rx="6" opacity="0.13"></rect>
    <rect x="96" y="44" width="38" height="60" rx="6" opacity="0.16"></rect>
    <rect x="58" y="116" width="54" height="40" rx="6" opacity="0.11"></rect>
    <rect x="212" y="48" width="50" height="50" rx="6" opacity="0.15"></rect>
    <rect x="272" y="62" width="40" height="64" rx="6" opacity="0.12"></rect>
    <rect x="322" y="92" width="44" height="44" rx="6" opacity="0.14"></rect>
    <rect x="250" y="142" width="58" height="42" rx="6" opacity="0.11"></rect>
    <rect x="150" y="162" width="48" height="38" rx="6" opacity="0.13"></rect>
  </g>
  
  <g fill="#94a3b8">
    <circle cx="70" cy="182" r="5" opacity="0.4"></circle>
    <circle cx="92" cy="198" r="3.5" opacity="0.3"></circle>
    <circle cx="300" cy="182" r="6" opacity="0.45"></circle>
    <circle cx="322" cy="198" r="4" opacity="0.3"></circle>
    <circle cx="356" cy="170" r="3.5" opacity="0.3"></circle>
    <circle cx="206" cy="120" r="4" opacity="0.35"></circle>
    <circle cx="46" cy="150" r="3.5" opacity="0.3"></circle>
    <circle cx="332" cy="56" r="3" opacity="0.3"></circle>
  </g>
  
  <g>
    <circle cx="284" cy="118" r="16" fill="none" stroke="#6d9eeb" stroke-width="2.5" opacity="0.7"></circle>
    <g fill="#6d9eeb" opacity="0.7">
      <circle cx="278" cy="114" r="1.8"></circle>
      <circle cx="290" cy="114" r="1.8"></circle>
    </g>
    <path d="M276 123 Q284 130 292 123" fill="none" stroke="#6d9eeb" stroke-width="2.2" stroke-linecap="round" opacity="0.7"></path>
  </g>
  
  <g>
    <circle cx="100" cy="90" r="13" fill="none" stroke="#6d9eeb" stroke-width="2.3" opacity="0.6"></circle>
    <g fill="#6d9eeb" opacity="0.6">
      <circle cx="95" cy="87" r="1.6"></circle>
      <circle cx="105" cy="87" r="1.6"></circle>
    </g>
    <path d="M93 94 Q100 100 107 94" fill="none" stroke="#6d9eeb" stroke-width="2" stroke-linecap="round" opacity="0.6"></path>
  </g>
  
  <circle cx="156" cy="108" r="31" fill="#6d9eeb"></circle>
  <g fill="#ffffff">
    <circle cx="145" cy="100" r="3.4"></circle>
    <circle cx="167" cy="100" r="3.4"></circle>
  </g>
  <path d="M141 116 Q156 131 171 116" fill="none" stroke="#ffffff" stroke-width="3.6" stroke-linecap="round"></path>
</svg>